<svg xmlns="http://www.w3.org/2000/svg" viewBox="0 0 64 64" shape-rendering="crispEdges" role="img" aria-labelledby="title desc">
  <title id="title">15funs pixel icon</title>
  <desc id="desc">Pixel card with the number 15 in the 15funs color palette.</desc>
  <rect width="64" height="64" fill="#292831"/>
  <rect x="13" y="15" width="42" height="42" fill="#141019"/>
  <rect x="11" y="11" width="42" height="42" fill="#000"/>
  <rect x="10" y="10" width="42" height="42" fill="#333f58"/>
  <rect x="12" y="12" width="38" height="38" fill="#f8f4f8"/>
  <rect x="12" y="12" width="38" height="10" fill="#fbbbad"/>
  <rect x="12" y="20" width="38" height="2" fill="#ee8695"/>
  <rect x="14" y="40" width="34" height="6" fill="#f0e9f0"/>
  <rect x="14" y="38" width="34" height="2" fill="#d8d0d8"/>
  <rect x="18" y="24" width="10" height="4" fill="#ee505e"/>
  <rect x="22" y="28" width="4" height="16" fill="#ee505e"/>
  <rect x="18" y="40" width="10" height="4" fill="#ee505e"/>
  <rect x="34" y="24" width="12" height="4" fill="#ee505e"/>
  <rect x="34" y="28" width="4" height="8" fill="#ee505e"/>
  <rect x="34" y="32" width="12" height="4" fill="#ee505e"/>
  <rect x="42" y="36" width="4" height="8" fill="#ee505e"/>
  <rect x="34" y="40" width="12" height="4" fill="#ee505e"/>
  <rect x="46" y="16" width="2" height="2" fill="#fff4f0"/>
  <rect x="44" y="18" width="2" height="2" fill="#fff4f0"/>
</svg>
