<?xml version="1.0" encoding="UTF-8"?>
<svg version="1.1" xmlns="http://www.w3.org/2000/svg" width="64" height="64">
<path d="M0 0 C13.86 0 27.72 0 42 0 C42.495 2.475 42.495 2.475 43 5 C43.66 5 44.32 5 45 5 C45 18.86 45 32.72 45 47 C31.14 47 17.28 47 3 47 C3 45.68 3 44.36 3 43 C2.01 42.67 1.02 42.34 0 42 C0 28.14 0 14.28 0 0 Z " fill="#F8F4F8" transform="translate(10,10)"/>
<path d="M0 0 C13.86 0 27.72 0 42 0 C42.495 2.475 42.495 2.475 43 5 C43.66 5 44.32 5 45 5 C45 18.86 45 32.72 45 47 C31.14 47 17.28 47 3 47 C3 45.68 3 44.36 3 43 C2.01 42.67 1.02 42.34 0 42 C0 28.14 0 14.28 0 0 Z M2 2 C2 14.54 2 27.08 2 40 C14.54 40 27.08 40 40 40 C40 27.46 40 14.92 40 2 C27.46 2 14.92 2 2 2 Z " fill="#0E0B12" transform="translate(10,10)"/>
<path d="M0 0 C3.3 0 6.6 0 10 0 C10 1.32 10 2.64 10 4 C9.34 4 8.68 4 8 4 C8 7.3 8 10.6 8 14 C13.28 14 18.56 14 24 14 C24 13.34 24 12.68 24 12 C21.36 12 18.72 12 16 12 C16 8.04 16 4.08 16 0 C19.96 0 23.92 0 28 0 C28 1.32 28 2.64 28 4 C25.36 4 22.72 4 20 4 C20 5.32 20 6.64 20 8 C22.64 8 25.28 8 28 8 C28 9.98 28 11.96 28 14 C28.66 14 29.32 14 30 14 C30 16.64 30 19.28 30 22 C18.78 22 7.56 22 -4 22 C-4 19.36 -4 16.72 -4 14 C-1.36 14 1.28 14 4 14 C4 10.7 4 7.4 4 4 C2.68 4 1.36 4 0 4 C0 2.68 0 1.36 0 0 Z " fill="#E8E1E8" transform="translate(18,24)"/>
<path d="M0 0 C12.54 0 25.08 0 38 0 C38 3.3 38 6.6 38 10 C25.46 10 12.92 10 0 10 C0 6.7 0 3.4 0 0 Z " fill="#F8B1A9" transform="translate(12,12)"/>
<path d="M0 0 C13.86 0 27.72 0 42 0 C42 13.86 42 27.72 42 42 C28.14 42 14.28 42 0 42 C0 28.14 0 14.28 0 0 Z M2 2 C2 14.54 2 27.08 2 40 C14.54 40 27.08 40 40 40 C40 27.46 40 14.92 40 2 C27.46 2 14.92 2 2 2 Z " fill="#333F58" transform="translate(10,10)"/>
<path d="M0 0 C3.96 0 7.92 0 12 0 C12 1.32 12 2.64 12 4 C9.36 4 6.72 4 4 4 C4 5.32 4 6.64 4 8 C6.64 8 9.28 8 12 8 C12 11.96 12 15.92 12 20 C8.04 20 4.08 20 0 20 C0 18.68 0 17.36 0 16 C2.64 16 5.28 16 8 16 C8 14.68 8 13.36 8 12 C5.36 12 2.72 12 0 12 C0 8.04 0 4.08 0 0 Z " fill="#EE505E" transform="translate(34,24)"/>
<path d="M0 0 C3.3 0 6.6 0 10 0 C10 1.32 10 2.64 10 4 C9.34 4 8.68 4 8 4 C8 7.96 8 11.92 8 16 C8.66 16 9.32 16 10 16 C10 17.32 10 18.64 10 20 C6.7 20 3.4 20 0 20 C0 18.68 0 17.36 0 16 C1.32 16 2.64 16 4 16 C4 12.04 4 8.08 4 4 C2.68 4 1.36 4 0 4 C0 2.68 0 1.36 0 0 Z " fill="#EE505E" transform="translate(18,24)"/>
</svg>
