<?xml version="1.0" encoding="UTF-8"?>
<svg version="1.1" xmlns="http://www.w3.org/2000/svg" width="64" height="64">
<path d="M0 0 C2.97397616 0.27036147 3.85446026 0.85446026 6 3 C5.46428571 6.53571429 5.46428571 6.53571429 4 8 C3.84013054 10.51856175 3.74058106 13.01364174 3.68359375 15.53515625 C3.66494263 16.20252808 3.6462915 16.8698999 3.6270752 17.55749512 C3.55859259 20.05902417 3.49856213 22.56077882 3.4375 25.0625 C3.293125 30.651875 3.14875 36.24125 3 42 C-10.86 42 -24.72 42 -39 42 C-39 29.46 -39 16.92 -39 4 C-21.1875 3.6875 -21.1875 3.6875 -15.57495117 3.61206055 C-14.10593107 3.57977352 -12.63693427 3.54640021 -11.16796875 3.51171875 C-10.40601196 3.50547485 -9.64405518 3.49923096 -8.85900879 3.49279785 C-4.66488654 3.44941576 -4.66488654 3.44941576 -1.1184082 1.45629883 C-0.7493335 0.97572021 -0.38025879 0.4951416 0 0 Z " fill="#FCF398" transform="translate(51,12)"/>
<path d="M0 0 C1.9375 0.8125 1.9375 0.8125 3.9375 2.8125 C3.40178571 6.34821429 3.40178571 6.34821429 1.9375 7.8125 C1.77763054 10.33106175 1.67808106 12.82614174 1.62109375 15.34765625 C1.60244263 16.01502808 1.5837915 16.6823999 1.5645752 17.36999512 C1.49609259 19.87152417 1.43606213 22.37327882 1.375 24.875 C1.230625 30.464375 1.08625 36.05375 0.9375 41.8125 C-12.9225 41.8125 -26.7825 41.8125 -41.0625 41.8125 C-41.0625 40.8225 -41.0625 39.8325 -41.0625 38.8125 C-40.0269397 38.83606567 -40.0269397 38.83606567 -38.97045898 38.86010742 C-35.81372412 38.92283453 -32.65712085 38.96161 -29.5 39 C-27.87094727 39.03770508 -27.87094727 39.03770508 -26.20898438 39.07617188 C-18.28548619 39.14842262 -13.15328587 38.64024026 -7.125 33.125 C-6.444375 32.361875 -5.76375 31.59875 -5.0625 30.8125 C-5.81400023 27.53476496 -5.81400023 27.53476496 -9.0625 25.8125 C-12.47215687 26.14246679 -14.40404443 27.77435073 -17.0625 29.8125 C-17.7225 29.8125 -18.3825 29.8125 -19.0625 29.8125 C-19.0625 30.4725 -19.0625 31.1325 -19.0625 31.8125 C-20.34900706 32.50960731 -21.64190665 33.19492876 -22.9375 33.875 C-24.01644531 34.44927734 -24.01644531 34.44927734 -25.1171875 35.03515625 C-26.08011719 35.41994141 -26.08011719 35.41994141 -27.0625 35.8125 C-27.7225 35.4825 -28.3825 35.1525 -29.0625 34.8125 C-27.84594417 27.71592432 -25.97369969 24.48320341 -20.49609375 19.91015625 C-17.61062481 17.42300244 -14.89204788 14.80590594 -12.1875 12.125 C-11.26195313 11.21363281 -10.33640625 10.30226563 -9.3828125 9.36328125 C-7.38140829 7.16308437 -6.2184818 5.50192705 -5.0625 2.8125 C-2.73991935 -0.24908358 -2.73991935 -0.24908358 0 0 Z " fill="#F6E279" transform="translate(53.0625,12.1875)"/>
<path d="M0 0 C1.9375 0.8125 1.9375 0.8125 3.9375 2.8125 C3.38908778 7.93101404 0.71801088 12.37876137 -3.125 15.6875 C-6.0625 17.8125 -6.0625 17.8125 -8.0625 17.8125 C-8.31 18.43125 -8.5575 19.05 -8.8125 19.6875 C-10.0625 21.8125 -10.0625 21.8125 -12.0625 22.75 C-14.8073265 24.20818908 -14.97615269 25.98799698 -16.0625 28.8125 C-17.0525 29.1425 -18.0425 29.4725 -19.0625 29.8125 C-19.0625 30.4725 -19.0625 31.1325 -19.0625 31.8125 C-20.34900706 32.50960731 -21.64190665 33.19492876 -22.9375 33.875 C-24.01644531 34.44927734 -24.01644531 34.44927734 -25.1171875 35.03515625 C-25.75914063 35.29167969 -26.40109375 35.54820313 -27.0625 35.8125 C-27.7225 35.4825 -28.3825 35.1525 -29.0625 34.8125 C-27.84594417 27.71592432 -25.97369969 24.48320341 -20.49609375 19.91015625 C-17.61062481 17.42300244 -14.89204788 14.80590594 -12.1875 12.125 C-11.26195313 11.21363281 -10.33640625 10.30226563 -9.3828125 9.36328125 C-7.38140829 7.16308437 -6.2184818 5.50192705 -5.0625 2.8125 C-2.73991935 -0.24908358 -2.73991935 -0.24908358 0 0 Z " fill="#FCE390" transform="translate(53.0625,12.1875)"/>
<path d="M0 0 C11.55 0 23.1 0 35 0 C33.93859718 4.24561127 33.19560427 5.16429804 30.18359375 8.109375 C29.41982422 8.86347656 28.65605469 9.61757813 27.86914062 10.39453125 C27.06669922 11.17183594 26.26425781 11.94914062 25.4375 12.75 C24.22803711 13.93916016 24.22803711 13.93916016 22.99414062 15.15234375 C21.00266222 17.10847046 19.00452279 19.05725719 17 21 C16.34 20.67 15.68 20.34 15 20 C15.433125 19.60167969 15.86625 19.20335938 16.3125 18.79296875 C16.869375 18.26316406 17.42625 17.73335937 18 17.1875 C18.556875 16.66542969 19.11375 16.14335938 19.6875 15.60546875 C21.316465 13.95851033 21.316465 13.95851033 21 11 C13.81947541 7.51098155 7.9587799 6.45529263 0 7 C0 4.69 0 2.38 0 0 Z " fill="#FCE472" transform="translate(12,16)"/>
<path d="M0 0 C3.36525621 0.46417327 5.40608501 1.86928411 8 4 C5.9948998 8.53113329 3.06142902 11.23585416 -1 14 C-4.1875 15.0625 -4.1875 15.0625 -7 15 C-9.125 13.6875 -9.125 13.6875 -11 12 C-12.31836295 11.30419733 -13.64791086 10.62775567 -15 10 C-9.25 7 -9.25 7 -7 7 C-7 6.34 -7 5.68 -7 5 C-5.03277992 3.61876037 -3.03131672 2.28511874 -1 1 C-0.67 0.67 -0.34 0.34 0 0 Z " fill="#FBF195" transform="translate(41,37)"/>
<path d="M0 0 C0.495 1.485 0.495 1.485 1 3 C0.34 3.66 -0.32 4.32 -1 5 C-1.2475 5.763125 -1.495 6.52625 -1.75 7.3125 C-3.49005927 11.05362743 -5.67299339 12.57405768 -9 15 C-9.66 15 -10.32 15 -11 15 C-11.2475 15.61875 -11.495 16.2375 -11.75 16.875 C-13 19 -13 19 -15 19.9375 C-17.7448265 21.39568908 -17.91365269 23.17549698 -19 26 C-19.99 26.33 -20.98 26.66 -22 27 C-22 27.66 -22 28.32 -22 29 C-23.28650706 29.69710731 -24.57940665 30.38242876 -25.875 31.0625 C-26.95394531 31.63677734 -26.95394531 31.63677734 -28.0546875 32.22265625 C-28.69664063 32.47917969 -29.33859375 32.73570313 -30 33 C-30.66 32.67 -31.32 32.34 -32 32 C-31.63376137 29.55326894 -31.44132769 28.3408876 -29.44238281 26.796875 C-28.78592773 26.45140625 -28.12947266 26.1059375 -27.453125 25.75 C-22.47872856 22.84789896 -18.74123119 19.11263747 -14.75 15 C-14.05648437 14.30132812 -13.36296875 13.60265625 -12.6484375 12.8828125 C-9.81974591 10.01076931 -7.15684747 7.20486201 -4.703125 4 C-3.86007813 3.01 -3.86007813 3.01 -3 2 C-2.01 2 -1.02 2 0 2 C0 1.34 0 0.68 0 0 Z " fill="#A54B13" transform="translate(56,15)"/>
<path d="M0 0 C5.19578896 1.36080187 8.13611036 3.41210248 12 7 C12 7.33 12 7.66 12 8 C12.928125 8.268125 13.85625 8.53625 14.8125 8.8125 C17.85184289 9.94480421 18.90073617 10.69900511 21 13 C13.6094524 13.14715692 6.35575165 12.70776992 -1 12 C-1.02687279 10.18757948 -1.04633715 8.37504767 -1.0625 6.5625 C-1.07410156 5.55316406 -1.08570313 4.54382812 -1.09765625 3.50390625 C-1 1 -1 1 0 0 Z " fill="#FCF8B9" transform="translate(13,39)"/>
<path d="M0 0 C0 1.65 0 3.3 0 5 C-13.86 5 -27.72 5 -42 5 C-42 4.01 -42 3.02 -42 2 C-40.40345581 2.01571045 -40.40345581 2.01571045 -38.7746582 2.03173828 C-34.81440614 2.06802076 -30.8541687 2.09093045 -26.89379883 2.10986328 C-25.18185961 2.11990208 -23.46993745 2.13353595 -21.75805664 2.15087891 C-19.29308858 2.17522073 -16.82834785 2.18650438 -14.36328125 2.1953125 C-13.60163162 2.20563507 -12.83998199 2.21595764 -12.05525208 2.22659302 C-7.7757524 2.22749043 -3.85927957 0 0 0 Z " fill="#947B33" transform="translate(54,49)"/>
<path d="M0 0 C0.66 0.66 1.32 1.32 2 2 C-0.95025726 5.00803572 -3.91149669 8.0050179 -6.875 11 C-7.71675781 11.85851563 -8.55851562 12.71703125 -9.42578125 13.6015625 C-10.23144531 14.41367187 -11.03710938 15.22578125 -11.8671875 16.0625 C-12.61081543 16.81660156 -13.35444336 17.57070313 -14.12060547 18.34765625 C-16 20 -16 20 -18 20 C-17.41899766 16.48737885 -16.20794215 14.84129027 -13.69140625 12.36328125 C-13.02689453 11.70392578 -12.36238281 11.04457031 -11.67773438 10.36523438 C-10.97970703 9.68783203 -10.28167969 9.01042969 -9.5625 8.3125 C-8.86833984 7.62349609 -8.17417969 6.93449219 -7.45898438 6.22460938 C-2.30922203 1.15461101 -2.30922203 1.15461101 0 0 Z " fill="#F1A805" transform="translate(48,20)"/>
<path d="M0 0 C1.32 0.33 2.64 0.66 4 1 C4.33 2.32 4.66 3.64 5 5 C0.25 7.875 0.25 7.875 -2 9 C-2.99 8.01 -3.98 7.02 -5 6 C-3.35 4.02 -1.7 2.04 0 0 Z " fill="#C19092" transform="translate(51,12)"/>
<path d="M0 0 C0.33 1.32 0.66 2.64 1 4 C-0.28650706 4.69710731 -1.57940665 5.38242876 -2.875 6.0625 C-3.95394531 6.63677734 -3.95394531 6.63677734 -5.0546875 7.22265625 C-5.69664063 7.47917969 -6.33859375 7.73570313 -7 8 C-7.66 7.67 -8.32 7.34 -9 7 C-8.875 5.1875 -8.875 5.1875 -8 3 C-2.96428571 0 -2.96428571 0 0 0 Z " fill="#A3834F" transform="translate(33,40)"/>
<path d="M0 0 C0.99 0.33 1.98 0.66 3 1 C3 1.66 3 2.32 3 3 C2.34 3 1.68 3 1 3 C0.7525 3.804375 0.505 4.60875 0.25 5.4375 C-1 8 -1 8 -3.125 8.8125 C-3.74375 8.874375 -4.3625 8.93625 -5 9 C-5.33 8.01 -5.66 7.02 -6 6 C-4.02 4.02 -2.04 2.04 0 0 Z " fill="#9D390E" transform="translate(38,33)"/>
<path d="M0 0 C0.33 0 0.66 0 1 0 C1 1.65 1 3.3 1 5 C-4.61 4.67 -10.22 4.34 -16 4 C-16 3.67 -16 3.34 -16 3 C-14.39318359 2.80083984 -14.39318359 2.80083984 -12.75390625 2.59765625 C-11.35674231 2.4194944 -9.95960841 2.24109681 -8.5625 2.0625 C-7.85544922 1.97548828 -7.14839844 1.88847656 -6.41992188 1.79882812 C-2.91182032 1.61783809 -2.91182032 1.61783809 0 0 Z " fill="#A38E46" transform="translate(53,49)"/>
<path d="M0 0 C0.33 0.99 0.66 1.98 1 3 C-1.97 5.475 -1.97 5.475 -5 8 C-5 4 -5 4 -3 2 C-2.01 2 -1.02 2 0 2 C0 1.34 0 0.68 0 0 Z " fill="#553338" transform="translate(56,15)"/>
<path d="M0 0 C0.99 0 1.98 0 3 0 C3.33 1.32 3.66 2.64 4 4 C2.02 4.66 0.04 5.32 -2 6 C-1.34 4.02 -0.68 2.04 0 0 Z " fill="#F6D7A6" transform="translate(27,37)"/>
</svg>
